<mxfile host="app.diagrams.net" modified="2023-05-30T02:08:10.539Z" agent="Mozilla/5.0 (Windows NT 10.0; Win64; x64) AppleWebKit/537.36 (KHTML, like Gecko) Chrome/113.0.0.0 Safari/537.36" etag="YlZGohd__ynlrfw_qw5s" version="21.3.5" type="github">
  <diagram name="第 1 页" id="bJqV1wxFN7mJxmhRPC-d">
    <mxGraphModel dx="1434" dy="908" grid="1" gridSize="10" guides="1" tooltips="1" connect="1" arrows="1" fold="1" page="1" pageScale="1" pageWidth="1920" pageHeight="1200" math="0" shadow="0">
      <root>
        <mxCell id="0" />
        <mxCell id="1" parent="0" />
        <mxCell id="YrCEO4tx444crZpDwMLG-1" value="RoomModule" style="shape=umlLifeline;perimeter=lifelinePerimeter;whiteSpace=wrap;html=1;container=1;dropTarget=0;collapsible=0;recursiveResize=0;outlineConnect=0;portConstraint=eastwest;newEdgeStyle={&quot;edgeStyle&quot;:&quot;elbowEdgeStyle&quot;,&quot;elbow&quot;:&quot;vertical&quot;,&quot;curved&quot;:0,&quot;rounded&quot;:0};" vertex="1" parent="1">
          <mxGeometry x="360" y="80" width="100" height="520" as="geometry" />
        </mxCell>
        <mxCell id="YrCEO4tx444crZpDwMLG-3" value="" style="html=1;points=[];perimeter=orthogonalPerimeter;outlineConnect=0;targetShapes=umlLifeline;portConstraint=eastwest;newEdgeStyle={&quot;edgeStyle&quot;:&quot;elbowEdgeStyle&quot;,&quot;elbow&quot;:&quot;vertical&quot;,&quot;curved&quot;:0,&quot;rounded&quot;:0};" vertex="1" parent="YrCEO4tx444crZpDwMLG-1">
          <mxGeometry x="45" y="70" width="10" height="50" as="geometry" />
        </mxCell>
        <mxCell id="YrCEO4tx444crZpDwMLG-2" value="timer - 500ms" style="html=1;verticalAlign=bottom;startArrow=oval;startFill=1;endArrow=block;startSize=8;edgeStyle=elbowEdgeStyle;elbow=vertical;curved=0;rounded=0;" edge="1" parent="1" target="YrCEO4tx444crZpDwMLG-3">
          <mxGeometry width="60" relative="1" as="geometry">
            <mxPoint x="320" y="160" as="sourcePoint" />
            <mxPoint x="380" y="160" as="targetPoint" />
          </mxGeometry>
        </mxCell>
        <mxCell id="YrCEO4tx444crZpDwMLG-4" value="RoomModule 中定时器：&lt;br&gt;CRoomModule::Process&lt;br&gt;每 500ms 定时触发一次" style="text;html=1;align=left;verticalAlign=middle;resizable=0;points=[];autosize=1;strokeColor=none;fillColor=none;" vertex="1" parent="1">
          <mxGeometry x="160" y="120" width="160" height="60" as="geometry" />
        </mxCell>
        <mxCell id="YrCEO4tx444crZpDwMLG-5" value="NetChannelManager" style="shape=umlLifeline;perimeter=lifelinePerimeter;whiteSpace=wrap;html=1;container=1;dropTarget=0;collapsible=0;recursiveResize=0;outlineConnect=0;portConstraint=eastwest;newEdgeStyle={&quot;edgeStyle&quot;:&quot;elbowEdgeStyle&quot;,&quot;elbow&quot;:&quot;vertical&quot;,&quot;curved&quot;:0,&quot;rounded&quot;:0};" vertex="1" parent="1">
          <mxGeometry x="600" y="80" width="100" height="520" as="geometry" />
        </mxCell>
        <mxCell id="YrCEO4tx444crZpDwMLG-6" value="" style="html=1;points=[];perimeter=orthogonalPerimeter;outlineConnect=0;targetShapes=umlLifeline;portConstraint=eastwest;newEdgeStyle={&quot;edgeStyle&quot;:&quot;elbowEdgeStyle&quot;,&quot;elbow&quot;:&quot;vertical&quot;,&quot;curved&quot;:0,&quot;rounded&quot;:0};" vertex="1" parent="YrCEO4tx444crZpDwMLG-5">
          <mxGeometry x="45" y="90" width="10" height="80" as="geometry" />
        </mxCell>
        <mxCell id="YrCEO4tx444crZpDwMLG-7" value="reconnect()" style="html=1;verticalAlign=bottom;endArrow=block;edgeStyle=elbowEdgeStyle;elbow=vertical;curved=0;rounded=0;" edge="1" parent="1" source="YrCEO4tx444crZpDwMLG-3" target="YrCEO4tx444crZpDwMLG-6">
          <mxGeometry width="80" relative="1" as="geometry">
            <mxPoint x="420" y="170" as="sourcePoint" />
            <mxPoint x="520" y="170" as="targetPoint" />
          </mxGeometry>
        </mxCell>
        <mxCell id="YrCEO4tx444crZpDwMLG-8" value="AudioModule" style="shape=umlLifeline;perimeter=lifelinePerimeter;whiteSpace=wrap;html=1;container=1;dropTarget=0;collapsible=0;recursiveResize=0;outlineConnect=0;portConstraint=eastwest;newEdgeStyle={&quot;edgeStyle&quot;:&quot;elbowEdgeStyle&quot;,&quot;elbow&quot;:&quot;vertical&quot;,&quot;curved&quot;:0,&quot;rounded&quot;:0};" vertex="1" parent="1">
          <mxGeometry x="1160" y="80" width="100" height="520" as="geometry" />
        </mxCell>
        <mxCell id="YrCEO4tx444crZpDwMLG-10" value="" style="html=1;points=[];perimeter=orthogonalPerimeter;outlineConnect=0;targetShapes=umlLifeline;portConstraint=eastwest;newEdgeStyle={&quot;edgeStyle&quot;:&quot;elbowEdgeStyle&quot;,&quot;elbow&quot;:&quot;vertical&quot;,&quot;curved&quot;:0,&quot;rounded&quot;:0};" vertex="1" parent="YrCEO4tx444crZpDwMLG-8">
          <mxGeometry x="45" y="110" width="10" height="50" as="geometry" />
        </mxCell>
        <mxCell id="YrCEO4tx444crZpDwMLG-16" value="" style="html=1;points=[];perimeter=orthogonalPerimeter;outlineConnect=0;targetShapes=umlLifeline;portConstraint=eastwest;newEdgeStyle={&quot;edgeStyle&quot;:&quot;elbowEdgeStyle&quot;,&quot;elbow&quot;:&quot;vertical&quot;,&quot;curved&quot;:0,&quot;rounded&quot;:0};" vertex="1" parent="YrCEO4tx444crZpDwMLG-8">
          <mxGeometry x="45" y="180" width="10" height="80" as="geometry" />
        </mxCell>
        <mxCell id="YrCEO4tx444crZpDwMLG-9" value="reCreateNetWrapper()" style="html=1;verticalAlign=bottom;endArrow=block;edgeStyle=elbowEdgeStyle;elbow=vertical;curved=0;rounded=0;" edge="1" parent="1" source="YrCEO4tx444crZpDwMLG-6" target="YrCEO4tx444crZpDwMLG-10">
          <mxGeometry width="80" relative="1" as="geometry">
            <mxPoint x="710" y="200" as="sourcePoint" />
            <mxPoint x="780" y="200.14" as="targetPoint" />
            <Array as="points">
              <mxPoint x="720" y="200" />
            </Array>
          </mxGeometry>
        </mxCell>
        <mxCell id="YrCEO4tx444crZpDwMLG-11" value="EventBus" style="shape=umlLifeline;perimeter=lifelinePerimeter;whiteSpace=wrap;html=1;container=1;dropTarget=0;collapsible=0;recursiveResize=0;outlineConnect=0;portConstraint=eastwest;newEdgeStyle={&quot;edgeStyle&quot;:&quot;elbowEdgeStyle&quot;,&quot;elbow&quot;:&quot;vertical&quot;,&quot;curved&quot;:0,&quot;rounded&quot;:0};fillColor=#FF9933;strokeColor=#FF9933;fontColor=#000000;" vertex="1" parent="1">
          <mxGeometry x="840" y="80" width="100" height="520" as="geometry" />
        </mxCell>
        <mxCell id="YrCEO4tx444crZpDwMLG-13" value="" style="html=1;points=[];perimeter=orthogonalPerimeter;outlineConnect=0;targetShapes=umlLifeline;portConstraint=eastwest;newEdgeStyle={&quot;edgeStyle&quot;:&quot;elbowEdgeStyle&quot;,&quot;elbow&quot;:&quot;vertical&quot;,&quot;curved&quot;:0,&quot;rounded&quot;:0};" vertex="1" parent="YrCEO4tx444crZpDwMLG-11">
          <mxGeometry x="45" y="140" width="10" height="60" as="geometry" />
        </mxCell>
        <mxCell id="YrCEO4tx444crZpDwMLG-17" value="" style="html=1;points=[];perimeter=orthogonalPerimeter;outlineConnect=0;targetShapes=umlLifeline;portConstraint=eastwest;newEdgeStyle={&quot;edgeStyle&quot;:&quot;elbowEdgeStyle&quot;,&quot;elbow&quot;:&quot;vertical&quot;,&quot;curved&quot;:0,&quot;rounded&quot;:0};" vertex="1" parent="YrCEO4tx444crZpDwMLG-11">
          <mxGeometry x="45" y="210" width="10" height="40" as="geometry" />
        </mxCell>
        <mxCell id="YrCEO4tx444crZpDwMLG-12" value="AsyncCall(MSG_AUDIO_RECREATENETWRAPPER)" style="html=1;verticalAlign=bottom;endArrow=block;edgeStyle=elbowEdgeStyle;elbow=vertical;curved=0;rounded=0;" edge="1" parent="1" source="YrCEO4tx444crZpDwMLG-10" target="YrCEO4tx444crZpDwMLG-13">
          <mxGeometry width="80" relative="1" as="geometry">
            <mxPoint x="1060" y="230" as="sourcePoint" />
            <mxPoint x="940" y="230" as="targetPoint" />
            <Array as="points">
              <mxPoint x="1030" y="230" />
            </Array>
          </mxGeometry>
        </mxCell>
        <mxCell id="YrCEO4tx444crZpDwMLG-14" value="MSG_UI_CONF_MEDIARECONNECT_RESPONSE" style="html=1;verticalAlign=bottom;endArrow=block;edgeStyle=elbowEdgeStyle;elbow=vertical;curved=0;rounded=0;" edge="1" parent="1" source="YrCEO4tx444crZpDwMLG-17" target="YrCEO4tx444crZpDwMLG-19">
          <mxGeometry width="80" relative="1" as="geometry">
            <mxPoint x="760" y="340" as="sourcePoint" />
            <mxPoint x="800" y="420.1" as="targetPoint" />
            <Array as="points">
              <mxPoint x="350" y="320" />
            </Array>
          </mxGeometry>
        </mxCell>
        <mxCell id="YrCEO4tx444crZpDwMLG-15" value="MSG_AUDIO_RECREATENETWRAPPER" style="html=1;verticalAlign=bottom;endArrow=block;edgeStyle=elbowEdgeStyle;elbow=vertical;curved=0;rounded=0;" edge="1" parent="1" source="YrCEO4tx444crZpDwMLG-13" target="YrCEO4tx444crZpDwMLG-16">
          <mxGeometry width="80" relative="1" as="geometry">
            <mxPoint x="900" y="280" as="sourcePoint" />
            <mxPoint x="980" y="280" as="targetPoint" />
            <Array as="points">
              <mxPoint x="1100" y="270" />
              <mxPoint x="940" y="280" />
            </Array>
          </mxGeometry>
        </mxCell>
        <mxCell id="YrCEO4tx444crZpDwMLG-18" value="AsyncCallback(MSG_UI_CONF_MEDIARECONNECT_RESPONSE)" style="html=1;verticalAlign=bottom;endArrow=block;edgeStyle=elbowEdgeStyle;elbow=vertical;curved=0;rounded=0;" edge="1" parent="1" source="YrCEO4tx444crZpDwMLG-16" target="YrCEO4tx444crZpDwMLG-17">
          <mxGeometry width="80" relative="1" as="geometry">
            <mxPoint x="1040" y="349.86" as="sourcePoint" />
            <mxPoint x="1120" y="349.86" as="targetPoint" />
            <Array as="points">
              <mxPoint x="990" y="310" />
              <mxPoint x="1010" y="300" />
            </Array>
          </mxGeometry>
        </mxCell>
        <mxCell id="YrCEO4tx444crZpDwMLG-19" value="ClientCore API" style="shape=umlLifeline;perimeter=lifelinePerimeter;whiteSpace=wrap;html=1;container=1;dropTarget=0;collapsible=0;recursiveResize=0;outlineConnect=0;portConstraint=eastwest;newEdgeStyle={&quot;edgeStyle&quot;:&quot;elbowEdgeStyle&quot;,&quot;elbow&quot;:&quot;vertical&quot;,&quot;curved&quot;:0,&quot;rounded&quot;:0};" vertex="1" parent="1">
          <mxGeometry x="200" y="240" width="100" height="360" as="geometry" />
        </mxCell>
        <mxCell id="YrCEO4tx444crZpDwMLG-21" value="OnMediaReconnect()" style="html=1;verticalAlign=bottom;endArrow=block;edgeStyle=elbowEdgeStyle;elbow=vertical;curved=0;rounded=0;" edge="1" parent="1" source="YrCEO4tx444crZpDwMLG-19">
          <mxGeometry width="80" relative="1" as="geometry">
            <mxPoint x="260" y="350" as="sourcePoint" />
            <mxPoint x="120" y="350" as="targetPoint" />
          </mxGeometry>
        </mxCell>
      </root>
    </mxGraphModel>
  </diagram>
</mxfile>
